<svg width="360" height="522" viewBox="0 0 360 522" fill="none" xmlns="http://www.w3.org/2000/svg">
<path fill-rule="evenodd" clip-rule="evenodd" d="M169.73 333.951C169.87 333.469 171.196 328.9 171.563 327.959C171.999 326.838 172.471 326.815 173.236 327.731C173.944 328.577 173.788 328.641 173.869 329.382C174.667 336.728 182.528 373.749 178.348 382.86C175.08 389.979 174.467 392.101 169.834 399.182C169.619 399.509 162.621 409.856 161.556 411.565C161.366 411.869 151.974 424.296 148.611 428.39C142.608 435.698 139.5 438.955 137.002 441.882C134.202 445.161 124.23 454.211 122.363 455.653C121.362 456.428 114.779 461.519 109.121 464.339C104.273 466.757 103.893 467.598 92.8885 470.455C84.594 472.608 73.1925 472.347 70.5159 470.456C67.8965 468.606 53.0648 450.297 51.7094 448.2C48.2142 442.793 47.9184 441.578 49.3343 437.69C49.4908 437.262 51.0037 433.109 51.3166 432.361C54.1382 425.624 57.96 414.937 60.9414 408.075C63.3998 402.412 63.1943 402.356 65.5511 396.672C67.4158 392.174 67.353 392.167 69.3307 387.7C72.7391 380.004 72.8088 380.043 73.0954 379.369C74.9555 375.006 74.6187 374.856 83.0719 359.204C90.0155 346.348 90.2862 346.521 90.8594 345.39C92.989 341.193 95.9818 336.991 96.4465 336.188C103.259 324.383 120.908 301.219 121.371 300.647C127.37 293.245 129.995 290.385 130.725 289.393C131.941 287.739 149.677 267.628 152.413 266.939C153.257 266.726 153.702 266.915 157.253 276.683C159.625 283.208 160.727 283.945 157.311 287.435C150.514 294.382 150.765 294.575 144.526 302.037C139.837 307.646 133.872 316.114 133.651 316.406C132.198 318.323 132.303 318.373 130.877 320.327C129.368 322.395 129.444 322.43 124.587 330.224C118.464 340.046 118.646 340.134 112.941 350.194C111.158 353.336 107.616 360.8 107.458 361.079C103.616 367.829 99.8767 376.999 99.3366 378.189C94.0863 389.757 94.1536 389.767 93.6798 390.764C92.4534 393.34 90.1457 398.431 89.8431 399.099C88.9981 400.962 83.4635 415.706 83.2511 416.313C77.6183 432.447 77.4836 436.034 77.4173 437.816C76.6397 458.518 99.6232 457.509 106.944 443.646C110.193 437.489 110.448 437.652 114.986 432.353C121.281 425.002 123.45 416.003 128.89 409.643C136.755 400.445 139.968 403.23 149.922 389.709C152.361 386.396 152.815 384.684 152.943 384.432C155.255 379.848 155.168 379.822 157.202 375.098C159.347 370.111 159.103 370.048 160.768 364.859C163.556 356.167 165.755 346.006 169.73 333.951Z" fill="#B75100"/>
<path fill-rule="evenodd" clip-rule="evenodd" d="M288.619 462.756C288.653 462.423 288.56 462.085 288.594 461.752C289.649 451.644 290.742 451.496 292.796 441.221C292.88 440.796 295.012 432.838 296.078 427.486C296.926 423.228 302.578 402.71 296.511 394.253C292.384 388.499 287.516 385.928 289.045 376.064C289.948 370.232 292.066 368.957 291.943 351.017C291.761 324.261 287.077 284.141 282.463 267.687C281.047 262.64 279.539 254.727 271.256 240.181C269.929 237.85 264.953 231.21 262.935 229.016C258.199 223.865 250.571 218.202 244.86 216.298C243.939 215.99 238.538 213.768 230.016 213.817C227.976 213.829 219.449 213.877 205.054 219.035C198.67 221.323 187.294 226.614 186.632 226.609C185.358 226.598 184.238 226.59 181.059 211.681C180.504 209.076 179.68 209.035 180.62 206.984C181.503 205.057 187.837 203.745 195.745 201.356C197.528 200.818 203.637 198.973 218.651 197.151C219.381 197.063 226.958 196.621 227.738 196.619C229.396 196.614 237.076 196.595 248.319 199.03C251.561 199.731 265.713 203.999 275.366 213.203C279.401 217.05 282.182 218.791 288.481 228.707C291.045 232.746 297.628 245.463 300.828 257.383C302.892 265.072 303.738 266.496 305.723 276.733C309.141 294.358 309.212 294.325 311.5 312.14C311.94 315.576 312.098 315.553 313.821 332.695C313.968 334.162 315.151 352.877 315.278 357.88C315.457 364.936 315.945 372.591 314.188 394.384C314.084 395.671 313.852 395.631 312.5 410.426C312.31 412.506 312.233 412.486 311.206 418.407C310.336 423.424 309.954 433.236 303.774 446.733C302.899 448.643 300.693 451.929 300.4 452.365C299.937 453.056 297.877 456.124 293.556 460.189C292.969 460.741 292.977 460.722 292.394 461.289C290.739 462.897 290.755 462.938 290.559 462.964C289.914 463.051 289.263 462.67 288.619 462.756Z" fill="#B75100"/>
<path fill-rule="evenodd" clip-rule="evenodd" d="M233.533 239.006C232.922 238.521 226.411 233.335 225.915 232.918C223.171 230.608 222.932 227.277 224.341 225.446C226.45 222.704 238.278 221.401 247.293 227.463C254.834 232.534 256.647 235.291 260.691 240.379C261.409 241.282 266.071 248.895 267.723 252.817C267.96 253.38 270.676 259.829 270.686 259.856C273.514 267.507 273.216 267.58 274.991 275.562C276.183 280.925 276.323 280.878 278.435 295.004C280.174 306.643 279.812 306.669 279.982 307.676C280.546 311.036 280.311 311.039 280.744 314.431C281.486 320.249 281.111 320.275 281.876 325.839C282.109 327.53 283.312 346.154 282.678 356.743C281.169 381.989 276.383 382.621 268.556 395.396C265.299 400.713 261.814 416.969 261.155 420.739C259.696 429.089 247.41 471.329 242.328 483.378C239.584 489.883 239.687 489.9 239.431 490.456C237.411 494.844 232.122 507 227.321 511.585C226.535 512.338 223.76 514.988 215.145 517.651C213.174 518.259 200.039 521.064 199.193 521.206C198.951 521.247 196.328 521.687 196.334 520.083C196.336 519.311 196.598 519.405 199.109 516.53C199.725 515.825 208.54 504.308 208.963 503.674C212.876 497.8 212.872 497.8 213.169 497.363C215.638 493.733 220.461 485.884 220.637 485.619C222.182 483.299 223.607 480.541 226.063 476.355C226.987 474.78 234.209 461.786 234.708 460.705C239.932 449.367 244.599 440.702 243.876 434.363C242.642 423.533 234.022 422.006 240.838 408.4C243.393 403.297 243.438 402.532 246.131 396.764C248.488 391.717 248.503 391.729 249.83 387.69C251.25 383.366 251.327 383.403 254.751 370.347C255.206 368.617 258.139 353.082 258.357 351C260.214 333.264 261.665 329.608 260.93 300.783C260.89 299.219 260.713 292.279 258.581 281.369C256.276 269.577 253.027 263.152 252.28 261.676C250.041 257.246 247.024 249.322 233.533 239.006Z" fill="#B75100"/>
<path fill-rule="evenodd" clip-rule="evenodd" d="M130.67 275.651C123.267 284.253 123.48 284.411 116.036 292.96C115.306 293.798 115.556 293.98 107.474 303.907C105.865 305.882 102.109 311.273 101.282 312.415C90.7344 326.973 81.1622 343.633 80.3229 345.246C78.5153 348.722 76.9658 350.42 68.733 366.87C57.9298 388.459 52.6281 404.884 47.3345 417.255C45.8432 420.741 42.8606 429.521 41.7724 430.095C39.9512 431.055 39.6737 429.233 36.8933 424.183C35.048 420.829 34.9635 420.897 33.1948 417.489C32.5747 416.295 27.0607 405.671 25.9748 402.299C25.0259 399.359 26.7718 396.133 27.6464 393.196C29.5088 386.946 29.6219 386.999 31.3541 380.717C31.3826 380.613 41.3625 348.057 45.3876 338.606C48.16 332.097 54.4814 314.147 62.1342 310.985C71.3399 307.182 76.3469 310.782 85.1119 303.182C91.3225 297.798 96.2211 287.581 100.037 281.489C105.549 272.688 113.856 262.164 117.076 258.625C118.969 256.543 118.716 256.345 121.946 253.237C124.82 250.47 133.219 241.447 140.702 235.146C141.267 234.671 141.298 234.694 142.044 234.752C143.411 234.861 142.8 235.639 144.941 242.351C148.684 254.082 148.84 254.039 148.976 255.101C149.253 257.246 148.308 257.302 141.19 264.471C135.774 269.928 135.888 270.005 130.67 275.651Z" fill="#B75100"/>
<path fill-rule="evenodd" clip-rule="evenodd" d="M199.142 134.893C201.01 134.543 200.977 134.499 202.645 134.293C223.371 131.732 234.415 134.004 241.471 135.007C252.191 136.53 267.687 142.725 274.666 147.609C275.054 147.88 282.664 152.802 287.269 156.704C312.629 178.183 324.477 203.931 326.116 207.048C327.049 208.825 333.057 220.259 336.453 229.906C338.497 235.711 338.702 235.614 340.947 241.331C344.598 250.63 347.414 255.934 348.065 257.16C354.302 268.912 355.484 272.983 355.907 274.441C359.681 287.444 350.785 287.921 345.158 282.716C339.338 277.335 337.113 269.919 332.98 260.732C329.671 253.377 329.902 252.78 328.033 248.332C322.533 235.243 318.255 221.142 308.228 204.518C301.922 194.064 297.644 189.726 296.056 187.91C290.822 181.919 290.63 182.124 290.538 182.031C271.049 162.624 245.185 158.238 244.843 158.172C237.366 156.716 233.063 155.907 214.014 156.498C212.125 156.557 203.722 157.515 197.968 158.878C178.864 163.401 179.093 164.143 177.433 164.526C175.06 165.076 174.842 162.953 174.816 162.7C174.543 160.064 174.729 152.113 174.751 151.193C174.942 142.969 174.1 140.894 177.509 139.826C187.891 136.57 197.386 135.154 199.142 134.893Z" fill="#B75100"/>
<path fill-rule="evenodd" clip-rule="evenodd" d="M133.962 182.034C134.017 186.71 134.393 187.167 130.89 190.27C127.549 193.229 127.688 193.353 124.297 196.234C122.656 197.625 110.829 208.994 102.344 216.532C100.337 218.315 79.2162 239.117 73.1415 246.731C72.4975 247.538 72.2611 247.315 64.3583 256.173C54.1215 267.649 54.0495 267.55 44.0457 279.222C39.8847 284.078 28.1075 298.217 27.9214 298.508C25.9585 301.583 25.793 301.445 23.6714 304.426C21.0108 308.166 20.8715 308.049 18.2943 311.864C18.0135 312.281 17.4711 312.818 12.8328 318.887C6.77864 326.81 6.68045 326.795 6.17004 326.896C4.3362 327.256 3.9628 325.008 3.9217 324.764C0.900324 306.621 1.37991 305.789 7.99016 298.086C12.2881 293.078 14.3892 289.82 14.8813 289.056C23.8838 275.087 32.0276 260.871 35.4965 255.97C36.4214 254.664 45.2549 240.769 50.9277 233.546C51.993 232.19 57.627 223.812 61.2033 219.858C68.4507 211.843 77.009 200.769 99.3907 182.612C101.284 181.078 101.183 180.999 103.073 179.484C110.639 173.416 110.54 173.325 118.384 167.586C124.673 162.986 124.767 163.162 131 158.514C131.879 157.86 131.918 157.82 132.991 157.983C134.672 158.239 133.172 159.246 133.962 182.034Z" fill="#B75100"/>
<path fill-rule="evenodd" clip-rule="evenodd" d="M124.853 208.164C132.242 201.966 135.189 197.491 135.818 202.67C136.345 207 136.563 206.945 136.969 209.533C138.853 221.521 139.891 221.795 138.325 224.026C137.809 224.761 137.784 224.716 130.454 232.036C117.578 244.896 117.445 244.751 105.633 258.6C95.4603 270.53 85.7225 288.639 84.0828 290.669C80.3946 295.233 80.4505 295.295 78.5779 296.751C70.6979 302.875 62.5416 297.827 54.9402 304.957C49.9194 309.666 47.8949 313.204 47.6402 313.558C46.5737 315.039 41.4924 324.679 39.6597 329.467C35.71 339.78 35.5684 339.698 31.758 350.043C27.3721 361.953 25.8066 367.837 25.3088 369.169C24.039 372.569 24.28 372.629 23.1335 376.08C20.4364 384.191 21.141 384.449 20.6363 384.991C20.5529 385.08 18.9828 385.255 18.8595 385.185C18.5661 385.02 17.9677 382.413 17.3614 380.82C14.8345 374.177 14.823 373.282 13.6149 369.134C5.70867 341.994 7.05151 340.875 9.33638 338.179C9.84223 337.582 13.575 333.176 15.4568 330.552C22.8458 320.246 36.2513 302.237 41.4742 296.105C44.7833 292.22 60.3161 274.242 65.8826 267.909C67.0382 266.595 72.5043 260.796 73.5251 259.622C81.1928 250.815 81.5901 251.057 83.3634 248.955C88.0759 243.367 88.3146 243.619 93.3057 238.259C96.6022 234.72 96.6913 234.827 100.11 231.413C109.166 222.369 109.561 222.507 113.525 218.539C114.974 217.088 115.032 217.185 116.552 215.834C119.433 213.273 122.29 210.41 124.853 208.164Z" fill="#B75100"/>
<path fill-rule="evenodd" clip-rule="evenodd" d="M228.9 338.465C229.579 333.335 229.707 333.368 230.488 328.251C231.183 323.687 230.859 323.679 231.339 319.065C232.038 312.354 232.698 301.106 232.018 296.253C231.4 291.841 231.556 280.769 222.666 269.216C222.16 268.557 220.162 265.96 214.934 262.29C204.293 254.817 198.511 258.041 195.775 255.097C194.734 253.976 189.593 239.64 189.479 239.026C189.447 238.852 189.239 237.727 190.139 236.933C191.146 236.046 198.762 233.736 208.395 235.313C215.148 236.419 223.881 241.631 224.576 242.162C235.816 250.736 236.485 253.186 239.474 257.172C244.715 264.161 248.941 278.983 248.989 279.183C251.394 289.241 251.804 299.033 251.877 300.773C252.403 313.338 252.112 313.317 251.803 325.905C251.717 329.401 249.033 353.391 248.268 356.727C246.785 363.183 244.133 379.081 236.082 396.86C231.318 407.378 229.455 409.462 227.817 412.727C224.18 419.978 209.989 441.769 208.637 443.73C202.179 453.1 202.23 453.119 201.653 453.923C200.129 456.046 197.023 461.771 196.491 462.361C195.529 463.426 195.641 463.539 195.518 463.55C195.37 463.561 193.973 462.883 193.963 462.809C193.862 462.061 196.156 457.506 196.38 457.059C201.497 446.898 202.351 443.098 204.572 437.689C205.864 434.542 206.355 431.875 207.459 428.767C211.751 416.67 211.944 413.563 213.951 406.951C218.865 390.761 221.919 373.523 223.273 368.178C224.132 364.787 228.022 344.562 228.9 338.465Z" fill="#B75100"/>
<path fill-rule="evenodd" clip-rule="evenodd" d="M143.306 59.001C146.151 58.3171 146.098 58.2109 148.924 57.4823C157.36 55.3082 157.304 55.113 158.046 54.96C159.785 54.6014 161.024 55.5081 159.941 57.3545C157.064 62.2622 156.893 64.635 155.373 67.605C153.618 71.0374 153.835 71.1162 152.308 74.6674C151.18 77.2926 148.954 77.3417 137.753 83.1275C133.27 85.4432 126.132 89.9878 125.83 90.1408C120.518 92.8082 120.863 93.3357 116.657 95.8627C101.555 104.937 101.436 105.773 97.2168 108.395C92.6299 111.245 92.7384 111.366 88.3023 114.467C81.4111 119.285 79.4574 120.485 79.4117 120.521C76.1962 123.101 76.0535 122.876 72.7935 125.404C69.932 127.622 65.7881 130.379 64.2786 131.566C55.3675 138.573 55.3846 138.572 54.6093 139.177C52.1977 141.059 42.5718 150.382 41.1547 151.888C32.7551 160.814 31.5448 162.379 30.7877 163.357C30.4326 163.816 19.9343 175.626 17.5969 177.418C15.4787 179.043 10.9547 181.427 9.57073 179.807C8.29527 178.312 11.3166 170.988 12.3124 167.297C14.1508 160.477 14.7365 160.716 19.5974 152.186C22.0353 147.911 21.083 141.552 29.5568 131.074C33.4437 126.269 39.4739 123.132 40.4525 122.622C54.728 115.193 57.5222 116.558 78.1785 106.716C81.8599 104.962 81.9387 101.619 81.8245 100.918C81.072 96.3423 74.1626 98.1852 73.4889 98.3657C71.8845 98.7939 58.0737 104.782 57.8613 104.891C52.152 107.821 40.932 111.535 39.2306 111.88C31.3529 113.476 35.6418 103.606 37.9483 100.786C41.1193 96.9109 41.1855 96.9509 45.2289 94.481C48.8771 92.2532 56.3107 89.5973 57.8385 88.9407C63.8767 86.3464 73.4158 83.027 79.3912 80.6679C86.7927 77.7459 86.8441 77.9274 89.5446 76.9077C90.465 76.5606 98.4443 73.5472 101.074 72.6269C105.145 71.203 105.182 71.3297 105.535 71.203C113.056 68.5116 113.012 68.4351 113.671 68.2204C137.237 60.5254 140.898 59.6051 143.306 59.001Z" fill="#B75100"/>
<path fill-rule="evenodd" clip-rule="evenodd" d="M136.286 329.261C137.626 327.301 142.008 320.574 144.349 317.884C146.248 315.7 146.409 314.578 154.291 305.066C157.665 300.996 157.713 301.069 161.134 297.007C162.405 295.499 162.347 295.092 163.723 295.255C165.277 295.439 164.68 296.183 166.21 301.886C168.036 308.687 168.234 308.914 165.806 315.533C163.933 320.636 164.112 320.672 162.446 325.84C159.419 335.237 151.987 367.7 146.23 378.22C143.015 384.095 143.04 384.809 138.308 389.495C131.89 395.847 129.05 396.146 122.937 402.635C114.958 411.103 113.946 421.464 108.125 426.692C100.346 433.679 100.458 436.064 99.5809 437.652C99.3914 437.996 98.0908 440.351 96.9969 441.843C96.8644 442.025 95.0157 443.404 94.2735 443.756C93.7608 443.999 89.9276 445.816 87.3219 442.353C84.5734 438.7 91.259 422.239 91.4155 421.689C93.3498 414.901 96.2695 408.814 97.3577 405.76C97.5792 405.137 99.4861 399.787 100.313 398.032C102.269 393.879 101.93 393.754 103.871 389.609C107.239 382.416 106.951 382.301 110.384 375.13C121.458 352.003 128.048 341.84 136.286 329.261Z" fill="#B75100"/>
<path fill-rule="evenodd" clip-rule="evenodd" d="M129.713 128.652C131.264 127.751 131.229 127.726 132.823 126.935C134.739 125.985 134.631 125.832 135.428 125.392C135.557 125.321 136.552 124.771 137.273 125.306C137.971 125.824 137.451 128.105 137.396 128.342C135.722 135.659 136.422 135.771 134.943 143.142C134.449 145.603 132.839 145.893 130.526 147.558C128.858 148.759 123.737 151.851 120.294 154.475C115.375 158.224 115.215 157.964 110.289 161.694C106.354 164.674 106.472 164.784 102.519 167.715C101.272 168.64 99.6892 169.814 87.6414 180.165C84.3928 182.954 72.1783 194.598 70.6139 196.171C66.9051 199.901 66.9862 199.953 63.4441 203.861C56.2253 211.823 56.4342 211.988 54.3903 214.23C47.8132 221.442 46.9214 223.334 45.1937 225.547C41.0293 230.882 36.5144 237.631 36.1033 238.145C35.7402 238.6 34.3666 240.316 31.8967 244.077C27.7449 250.396 27.6307 250.308 27.2767 250.862C27.0529 251.211 18.8338 264.961 18.6579 265.326C16.976 268.834 14.3725 272.915 12.9075 275.567C12.6129 276.102 10.9743 279.068 9.15077 282.218C7.83877 284.482 3.77602 289.591 2.60333 289.955C1.35527 290.342 0.800313 289.39 0.71924 289.251C0.292183 288.516 0.0683886 282.234 0.19171 274.509C0.273924 269.284 2.06208 268.239 2.68212 265.361C3.60588 261.068 1.10063 258.984 0.762642 258.396C-0.544793 256.116 0.171152 251.302 0.422362 250.516C1.33814 247.641 2.72093 248.335 9.217 243.214C12.4256 240.685 18.5986 232.346 19.7096 230.959C22.4443 227.549 22.3679 227.522 26.5722 221.848C41.3959 201.851 58.6951 183.559 60.0391 182.181C73.2573 168.635 73.7894 168.914 80.5173 162.708C84.5127 159.023 96.6701 149.347 103.501 144.68C112.455 138.563 126.713 130.294 129.713 128.652Z" fill="#B75100"/>
<path fill-rule="evenodd" clip-rule="evenodd" d="M222.13 84.6779C223.521 85.1746 231.394 87.9847 239.202 91.7163C239.508 91.8625 249.191 97.1344 250.324 97.8801C261.422 105.177 260.636 106.153 264.715 109.558C269.48 113.536 273.104 117.407 277.194 121.066C291.747 134.089 299.987 138.672 309.131 146.2C309.247 146.295 318.093 153.959 318.975 154.752C320.572 156.187 320.722 156.007 324.367 159.591C331.165 166.275 331.596 165.87 341.35 178.118C346.552 184.651 346.68 184.586 350.294 192.116C356.374 204.783 355.418 212.889 355.342 215.121C355.217 218.854 354.668 225.157 347.315 220.146C346.665 219.704 344.818 218.445 340.522 213.049C335.471 206.703 322.021 182.616 319.988 179.93C317.438 176.563 315.085 172.061 305.7 162.302C296.674 152.913 293.75 150.271 283.817 143.033C277.418 138.369 270.688 135.034 266.754 132.576C262.585 129.971 262.399 130.312 258.31 127.602C255.22 125.551 255.137 125.688 252.416 123.144C251.61 122.389 250.462 121.909 248.25 118.107C247.107 116.144 245.381 113.711 245.116 113.339C240.435 106.746 236.658 105.082 232.576 102.725C230.78 101.688 223.759 98.6782 215.158 97.6494C202.636 96.1524 202.621 96.7611 190.03 97.0854C186.037 97.1881 182.231 98.3483 181.608 96.5829C181.196 95.4194 181.53 95.4194 181.772 94.0628C181.966 92.9746 183.857 82.3976 184.712 80.5603C185.516 78.8338 188.379 79.133 192.342 79.1661C193.531 79.1763 197.465 79.2095 207.094 80.9508C214.081 82.2149 220.945 84.3159 222.13 84.6779Z" fill="#B75100"/>
<path fill-rule="evenodd" clip-rule="evenodd" d="M137.293 114.108C127.903 118.068 114.265 126.706 111.325 128.449C107.058 130.977 88.5289 143.88 85.0885 146.728C82.2635 149.065 82.3024 149.074 79.4351 151.375C65.7442 162.366 50.345 178.74 50.0493 179.029C48.5249 180.514 37.8815 192.423 37.5675 192.81C24.9556 208.371 8.8428 232.677 5.0815 233.439C3.45206 233.769 2.98848 232.401 2.92453 232.213C2.03959 229.606 2.65391 218.985 3.32532 216.408C4.28335 212.734 5.50857 205.737 13.4719 194.873C14.1491 193.948 30.0564 175.854 31.6127 174.313C37.3209 168.658 43.9254 161.57 51.1866 155.131C62.708 144.912 64.2666 143.921 65.5307 143.118C66.1313 142.736 66.0194 142.604 72.5885 137.696C93.7724 121.865 117.386 106.929 121.378 104.142C122.909 103.073 122.998 103.257 124.836 101.905C128.729 99.04 134.082 96.4171 142.394 91.144C142.653 90.9796 147.046 88.1911 145.745 93.0235C145.55 93.7509 145.292 93.6675 142.951 102.013C141.622 106.754 141.628 106.744 140.821 110.057C140.389 111.824 139.853 112.7 137.293 114.108Z" fill="#B75100"/>
<path fill-rule="evenodd" clip-rule="evenodd" d="M207.257 51.4993C217.414 53.9246 223.815 57.5158 228.85 59.9011C242.187 66.2225 261.98 80.1133 269.897 86.2222C272.924 88.5573 273.064 88.3335 282.314 95.5524C287.63 99.7008 291.601 102.649 292.588 103.513C294.735 105.394 294.889 105.186 296.998 107.1C300.825 110.569 306.383 114.492 310.995 118.204C311.918 118.946 331.03 131.716 336.682 139.427C339.151 142.798 342.097 146.027 344.71 160.238C345.396 163.972 347.116 168.227 345.391 168.422C343.566 168.627 343.897 167.824 342.747 166.374C336.035 157.906 317.987 141.208 315.254 139.165C308.217 133.905 306.89 132.56 298.6 127.118C297.213 126.208 293.301 123.399 289.36 120.41C282.242 115.009 275.122 104.915 258.832 92.5973C257.781 91.8037 254.313 89.182 244.717 84.1281C229.729 76.2366 208.269 69.358 193.478 69.2165C190.136 69.1845 190.137 69.1925 190.016 69.1708C187.257 68.6718 188.584 64.8842 189.31 62.2545C190.208 58.999 190.539 59.1224 192.059 54.0445C192.623 52.1593 192.501 52.1239 192.939 51.5255C193.396 50.8998 193.255 50.1896 198.039 50.0925C200.689 50.0377 206.528 51.3371 207.257 51.4993Z" fill="#B75100"/>
<path fill-rule="evenodd" clip-rule="evenodd" d="M186.599 171.637C192.014 170.124 191.999 170.111 192.471 169.983C194.82 169.344 198.4 168.815 200.336 168.327C203.982 167.411 212.151 165.943 215.171 165.872C233.067 165.456 236.458 165.394 251.752 169.346C255.996 170.442 265.601 175.045 269.022 177.158C269.541 177.478 274.803 180.728 275.473 181.216C289.215 191.217 293.76 198.053 296.816 202.156C300.801 207.512 305.367 218.806 298.543 219.769C293.969 220.414 292.1 217.333 279.937 205.178C275.329 200.573 263.159 193.007 250.609 189.887C247.642 189.149 241.512 188.166 241.38 188.153C230.923 187.078 225.706 187.105 220.875 187.566C208.904 188.705 201.307 189.894 184.272 194.324C181.266 195.106 178.995 196.67 178.004 195.35C177.718 194.969 177.433 192.559 177.404 192.314C176.913 188.167 176.55 186.749 176.357 184.306C175.868 178.111 174.955 175.707 177.636 174.458C178.413 174.096 185.879 171.854 186.599 171.637Z" fill="#B75100"/>
<path fill-rule="evenodd" clip-rule="evenodd" d="M330.071 120.127C328.395 120.23 328.399 120.289 328.262 120.239C327.429 119.932 320.602 114.413 319.951 113.886C314.436 109.427 313.583 108.663 313.05 108.185C308.339 103.965 299.676 97.2356 296.19 94.1697C294.383 92.5802 290.439 89.9585 289.066 88.8224C281.769 82.7808 246.189 58.9284 239.268 55.0757C225.797 47.5748 220.967 45.1312 210.434 42.1133C201.772 39.632 200.186 40.8241 198.817 39.8113C197.087 38.5324 198.537 36.815 199.217 34.7323C200.338 31.3021 200.42 31.3581 201.698 27.9644C203.086 24.2762 204.536 25.168 211.817 26.3544C213.814 26.6798 222.501 28.0958 235.539 35.0942C240.721 37.8758 240.592 38.0596 245.722 40.9075C246.043 41.0856 254.695 47.0712 257.631 49.283C265.511 55.2173 265.523 55.1922 266.191 55.7289C270.664 59.3177 270.778 59.1408 275.381 62.5458C291.068 74.1494 312.152 83.8792 315.544 87.3619C316.474 88.3177 322.207 98.3215 325.318 106.455C326.26 108.919 330.177 117.995 330.26 119.198C330.282 119.513 330.049 119.811 330.071 120.127Z" fill="#B75100"/>
<path fill-rule="evenodd" clip-rule="evenodd" d="M156.918 26.6091C165.383 24.854 165.369 24.8038 166.113 24.6976C176.759 23.1835 177.36 21.9366 177.645 23.163C178.062 24.9465 177.285 24.805 174.852 28.7832C171.13 34.8705 170.727 35.0338 168.492 39.3671C165.448 45.2694 163.443 44.075 159.266 45.1986C137.636 51.0164 133.936 52.124 131.748 52.7783C114.873 57.8265 115.018 58.2661 113.54 58.6681C108.818 59.9538 108.946 60.2713 104.347 61.9589C87.493 68.1444 62.5889 78.5502 56.4491 78.2431C53.1229 78.0763 54.1391 74.6565 54.4794 73.6619C55.3232 71.1955 59.7948 65.1687 60.7014 64.1262C66.9668 56.9222 74.462 55.0301 83.9703 50.9445C98.5234 44.6916 100.179 44.7876 105.435 42.4502C109.01 40.8596 113.453 39.519 120.366 36.9076C124.06 35.5122 125.196 35.6778 127.272 34.77C131.256 33.0275 133.06 32.9636 139.705 30.9048C141.06 30.4846 146.693 28.7398 156.918 26.6091Z" fill="#B75100"/>
<path fill-rule="evenodd" clip-rule="evenodd" d="M177.555 403.611L178.643 403.506C178.843 403.74 179.351 403.43 179.551 403.663C179.945 404.124 179.28 407.528 178.754 414.977C178.596 417.214 178.345 417.498 177.3 427.501C176.55 434.688 174.766 435.795 170.771 441.324C163.222 451.768 153.949 461.29 152.366 462.916C147.727 467.68 147.777 467.696 144.828 470.259C143.046 471.809 136.224 479.022 123.468 486.333C122.115 487.109 113.038 491.565 108.988 492.626C98.0535 495.49 95.9422 493.082 92.745 490.678C92.3784 490.402 92.4367 490.373 88.2289 487.145C86.934 486.153 82.5778 482.5 82.5321 482.459C82.3711 482.315 82.1028 482.257 82.0297 482.055C81.9407 481.807 82.0936 481.531 82.1016 481.267C82.1153 480.812 81.9007 480.497 82.8142 480.26C85.187 479.643 95.8988 481.132 112.636 472.559C119.324 469.132 119.156 468.87 125.302 464.532C129.334 461.685 129.343 461.711 133.04 458.447C139.576 452.678 144.576 447.682 155.086 434.755C156.069 433.547 157.476 431.816 166.829 419.232C176.864 405.729 176.504 405.504 177.555 403.611Z" fill="#B75100"/>
<path fill-rule="evenodd" clip-rule="evenodd" d="M323.724 389.849C323.767 388.479 323.938 383.07 323.966 372.719C324.022 351.333 323.49 351.351 323.317 343.045C323.07 331.141 321.892 328.683 321.752 324.734C321.529 318.487 321.349 318.506 319.093 301.922C318.448 297.179 314.867 282.444 316.304 274.433C317.375 268.461 323.077 270.636 324.357 271.64C324.755 271.951 325.982 272.914 327.745 276.981C329.541 281.124 332.389 294.325 332.807 297.353C333.828 304.74 334.063 304.679 334.132 305.322C334.915 312.665 336.991 328.009 337.234 330.481C338.728 345.669 340.033 346.865 340.61 354.467C340.812 357.126 338.328 363.641 338.182 370.425C337.791 388.527 336.469 390.198 331.258 398.73C331.033 399.099 326.509 405.473 325.949 405.849C324.55 406.788 323.746 405.997 323.613 405.866C322.505 404.775 323.605 395.539 323.724 389.849Z" fill="#B75100"/>
<path fill-rule="evenodd" clip-rule="evenodd" d="M269.683 424.029C270.344 421.035 270.327 421.051 270.398 420.795C273.829 408.36 273.893 405.029 277.208 400.413C280.416 395.945 288.951 394.137 290.373 403.576C291.354 410.073 286.238 432.217 283.572 442.343C278.994 459.741 278.508 461.303 278.004 462.933C277.635 464.12 273.561 477.251 273.371 477.755C271.131 483.702 269.899 485.214 267.35 487.656C266.176 488.778 246.261 504.676 244.86 504.096C243.439 503.507 243.724 503.071 244.353 501.683C250.293 488.579 251.812 483.193 253.085 480.144C254.207 477.457 254.6 475.3 255.347 473.262C259.83 461.033 267.255 433.819 267.419 433.158C267.6 432.428 269.641 424.197 269.683 424.029Z" fill="#B75100"/>
<path fill-rule="evenodd" clip-rule="evenodd" d="M222.256 439.088C225.842 433.268 229.237 427.955 232.661 430.473C239.738 435.676 228.89 451.368 224.104 461.692C222.765 464.581 220.2 468.545 219.592 469.695C215.954 476.566 205.785 492.734 204.501 494.595C199.471 501.884 189.68 517.676 175.237 521.27C168.412 522.969 160.054 521.257 157.846 520.591C154.14 519.474 156.662 517.806 156.868 517.67C157.664 517.144 163.544 512.825 164.067 512.409C164.454 512.103 170.423 507.219 172.722 504.968C173.78 503.931 181.372 495.815 181.545 495.607C203.378 469.16 212.128 453.762 213.873 451.402C214.644 450.357 214.606 450.359 222.256 439.088Z" fill="#B75100"/>
<path fill-rule="evenodd" clip-rule="evenodd" d="M216.392 17.3356C214.095 16.7772 214.112 16.7738 211.832 16.1149C210.252 15.6582 207.81 15.2585 207.447 14.9799C206.425 14.1989 207.351 12.2315 207.452 12.0179C211.861 2.65579 211.744 2.61353 212.172 1.82336C212.546 1.13253 213.828 -1.23569 221.936 0.823094C233.822 3.84104 239.298 6.87155 241.659 8.04082C244.413 9.4042 244.335 9.51496 247.053 10.9377C248.108 11.4904 256.268 15.7621 259.849 18.554C262.47 20.5968 274.757 28.7816 287.026 42.7969C290.424 46.6792 292.073 48.9036 293.695 50.9075C299.413 57.9745 305.873 68.1737 305.797 69.0734C305.77 69.4057 304.706 70.1913 304.244 70.1045C303.93 70.044 302.198 68.957 302.026 68.8485C301.587 68.5733 301.158 68.2844 300.717 68.0115C292.83 63.1266 289.513 61.6228 284.592 57.8957C284.563 57.874 278.287 53.527 277.834 53.1833C277.368 52.8293 272.156 48.8693 272.014 48.7574C268.139 45.7155 267.892 46.0774 264.089 42.9624C260.597 40.1009 257.937 38.5115 256.153 37.1926C254.493 35.964 254.417 36.1215 252.719 34.9157C246.642 30.6006 235.578 24.1719 229.975 22.3107C225.196 20.7235 225.468 19.979 216.392 17.3356Z" fill="#B75100"/>
<path fill-rule="evenodd" clip-rule="evenodd" d="M192.353 0.107422C194.268 0.251297 194.562 -0.236272 195.208 0.807392C196.034 2.14566 195.152 2.10683 194.044 3.20645C193.627 3.6198 193.729 3.69631 189.282 8.78103C187.86 10.4082 187.267 12.3368 184.33 12.918C183.607 13.0607 183.578 12.7878 175.182 13.9754C172.237 14.3921 172.231 14.23 164.961 15.4838C162.32 15.9394 155.476 17.4067 154.653 17.5825C152.751 17.9913 135.941 22.0164 127.387 24.9099C119.344 27.6309 119.367 27.6127 111.36 30.3908C107.245 31.8181 107.22 31.7097 103.188 33.3642C99.8048 34.7504 94.3707 36.4827 90.759 38.3336C88.6374 39.4207 88.6499 39.4629 88.4227 39.4698C88.1349 39.4778 86.3856 38.8086 87.7239 37.3025C88.1052 36.8732 88.3473 37.1495 93.0849 32.5352C93.1786 32.4439 101.129 25.3849 106.607 22.0164C111.776 18.8374 113.403 17.3747 119.323 14.2871C128.185 9.66368 128.149 9.62601 137.355 5.74595C141.367 4.05485 141.499 4.46022 145.574 2.90957C152.61 0.231896 161.266 0.203341 162.648 0.198773C165.025 0.19078 190.495 0.107422 192.353 0.107422Z" fill="#B75100"/>
<path fill-rule="evenodd" clip-rule="evenodd" d="M170.068 464.227C166.125 479.219 164.016 488.722 155.943 500.714C148.939 511.119 140.255 514.347 139.85 514.446C136.199 515.335 132.543 513.904 122.912 509.232C122.351 508.959 117.543 506.153 115.77 505.31C112.097 503.564 110.565 502.638 111.965 501.417C113.148 500.386 113.382 500.867 117.921 498.986C122.168 497.227 122.262 497.474 126.28 495.195C133.186 491.28 133.358 491.547 139.612 486.645C140.628 485.848 148.075 480.011 151.964 476.255C153.214 475.047 166.352 461.607 169.358 457.046C169.851 456.295 169.896 456.359 170.417 455.601C170.969 454.8 170.935 454.609 171.913 454.635C173.254 454.672 172.38 457.002 172.308 457.196C171.011 460.655 171.055 460.647 170.068 464.227Z" fill="#B75100"/>
<path fill-rule="evenodd" clip-rule="evenodd" d="M180.94 128.441C177.912 129.237 177.818 129.202 177.559 129.107C177.388 129.045 176.264 128.636 176.295 127.218C176.324 125.841 178.364 111.443 178.967 110.261C179.428 109.358 179.812 108.606 191.255 107.127C209.836 104.724 233.166 108.759 233.425 116.939C233.577 121.749 229.532 122.745 228.954 122.887C220.253 125.029 217.83 122.482 201.449 124.759C191.127 126.193 191.195 126.466 180.94 128.441Z" fill="#B75100"/>
<path fill-rule="evenodd" clip-rule="evenodd" d="M220.613 333.826C220.519 334.149 220.399 334.064 220.299 334.409C220.14 334.952 220.276 334.96 220.124 335.509C220.05 335.773 219.858 335.993 219.785 336.258C219.399 336.25 219.256 336.976 218.869 336.968C217.981 336.951 218.144 329.146 216.931 321.421C214.193 303.98 208.309 282.617 201.999 269.725C201.1 267.888 201.602 267.674 202.285 267.118C202.873 266.64 202.929 266.764 203.671 266.975C211.885 269.319 215.02 274.193 216.825 276.454C217.857 277.747 221.943 282.866 222.782 296.247C223.354 305.385 221.953 314.697 220.613 333.826Z" fill="#B75100"/>
<path fill-rule="evenodd" clip-rule="evenodd" d="M353.697 321.4C353.492 322.698 352.312 330.214 350.149 337.452C349.784 338.677 350.015 339.102 348.747 339.182C347.401 339.266 347.562 338.776 347.353 337.438C346.34 330.969 346.873 330.911 344.858 319.121C341.92 301.932 341.954 301.219 342.028 299.646C342.507 289.558 353.579 295.386 354.86 304.129C355.741 310.141 355.018 314.172 353.697 321.4Z" fill="#B75100"/>
<path fill-rule="evenodd" clip-rule="evenodd" d="M303.541 234.535C303.573 234.192 303.078 230.303 306.622 229.36C309.567 228.575 311.476 231.131 311.741 231.486C312.773 232.866 318.295 246.187 318.674 247.253C321.06 253.956 321.327 254.227 320.572 256.369C319.315 259.933 313.058 262.556 310.045 255.067C303.218 238.093 303.663 235.511 303.541 234.535Z" fill="#B75100"/>
<path fill-rule="evenodd" clip-rule="evenodd" d="M350.901 242.555C350.88 242.187 350.706 239.056 350.79 237.944C350.82 237.544 351.064 234.311 354.483 234.557C359.844 234.944 361.307 250.489 355.651 250.891C351.286 251.202 351.107 244.023 350.901 242.555Z" fill="#B75100"/>
</svg>
