<svg width="169" height="97" viewBox="0 0 169 97" fill="none" xmlns="http://www.w3.org/2000/svg">
<path fill-rule="evenodd" clip-rule="evenodd" d="M83.7221 26.2308C83.733 26.1929 83.8373 25.8341 83.866 25.7602C83.9003 25.6721 83.9373 25.6703 83.9974 25.7422C84.053 25.8087 84.0408 25.8137 84.0472 25.8719C84.1098 26.4489 84.7273 29.3568 84.399 30.0724C84.1423 30.6315 84.0941 30.7982 83.7303 31.3544C83.7134 31.3801 83.1637 32.1928 83.08 32.3271C83.0651 32.3509 82.3274 33.327 82.0633 33.6485C81.5917 34.2225 81.3477 34.4784 81.1514 34.7083C80.9315 34.9659 80.1483 35.6767 80.0016 35.7899C79.923 35.8508 79.4059 36.2507 78.9615 36.4722C78.5807 36.6622 78.5508 36.7282 77.6865 36.9526C77.035 37.1217 76.1395 37.1012 75.9292 36.9527C75.7235 36.8074 74.5585 35.3693 74.4521 35.2045C74.1775 34.7799 74.1543 34.6844 74.2655 34.3791C74.2778 34.3454 74.3966 34.0192 74.4212 33.9605C74.6428 33.4313 74.943 32.5919 75.1772 32.0529C75.3703 31.6081 75.3542 31.6037 75.5393 31.1573C75.6857 30.804 75.6808 30.8034 75.8361 30.4526C76.1039 29.8481 76.1093 29.8511 76.1318 29.7982C76.2779 29.4555 76.2515 29.4437 76.9155 28.2143C77.4608 27.2045 77.4821 27.2181 77.5271 27.1293C77.6944 26.7997 77.9295 26.4696 77.966 26.4065C78.5011 25.4793 79.8873 23.6598 79.9237 23.6149C80.3949 23.0335 80.601 22.8089 80.6584 22.7309C80.7539 22.6011 82.147 21.0214 82.3619 20.9673C82.4282 20.9505 82.4631 20.9654 82.7421 21.7326C82.9284 22.2452 83.0149 22.303 82.7466 22.5771C82.2127 23.1228 82.2325 23.1379 81.7424 23.7241C81.3741 24.1646 80.9056 24.8297 80.8882 24.8527C80.7741 25.0033 80.7824 25.0072 80.6704 25.1607C80.5518 25.3231 80.5578 25.3259 80.1763 25.938C79.6953 26.7095 79.7096 26.7164 79.2615 27.5066C79.1215 27.7534 78.8433 28.3397 78.8308 28.3616C78.5291 28.8917 78.2354 29.612 78.193 29.7055C77.7806 30.6141 77.7859 30.6149 77.7487 30.6932C77.6523 30.8956 77.4711 31.2954 77.4473 31.3478C77.3809 31.4942 76.9462 32.6523 76.9295 32.7C76.4871 33.9672 76.4765 34.249 76.4713 34.3889C76.4102 36.015 78.2155 35.9358 78.7905 34.8469C79.0457 34.3633 79.0657 34.3761 79.4222 33.9599C79.9166 33.3824 80.087 32.6756 80.5143 32.176C81.1321 31.4536 81.3844 31.6723 82.1663 30.6103C82.3578 30.3502 82.3934 30.2156 82.4035 30.1959C82.5851 29.8358 82.5783 29.8337 82.738 29.4627C82.9066 29.071 82.8874 29.0661 83.0181 28.6585C83.2371 27.9757 83.4099 27.1777 83.7221 26.2308Z" fill="#FFDDA9"/>
<path fill-rule="evenodd" clip-rule="evenodd" d="M93.0608 36.3474C93.0635 36.3212 93.0562 36.2946 93.0589 36.2684C93.1417 35.4745 93.2276 35.463 93.3889 34.6558C93.3956 34.6225 93.563 33.9974 93.6467 33.5771C93.7133 33.2426 94.1573 31.631 93.6808 30.9667C93.3565 30.5147 92.9742 30.3129 93.0943 29.538C93.1652 29.08 93.3316 28.9798 93.3219 27.5707C93.3077 25.4691 92.9398 22.3179 92.5773 21.0255C92.4661 20.6291 92.3476 20.0076 91.697 18.865C91.5928 18.682 91.202 18.1604 91.0435 17.988C90.6714 17.5835 90.0723 17.1387 89.6238 16.9891C89.5514 16.965 89.1272 16.7904 88.4578 16.7943C88.2976 16.7952 87.6279 16.7989 86.4972 17.2041C85.9957 17.3838 85.1022 17.7994 85.0502 17.799C84.9501 17.7982 84.8621 17.7975 84.6124 16.6265C84.5689 16.4219 84.5042 16.4187 84.578 16.2576C84.6473 16.1062 85.1448 16.0031 85.766 15.8155C85.906 15.7733 86.3859 15.6283 87.5652 15.4852C87.6225 15.4783 88.2177 15.4436 88.2789 15.4434C88.4091 15.443 89.0124 15.4415 89.8955 15.6328C90.1501 15.6879 91.2617 16.0231 92.0199 16.746C92.3368 17.0482 92.5553 17.185 93.05 17.9638C93.2514 18.2811 93.7685 19.2799 94.0198 20.2162C94.1819 20.8201 94.2484 20.932 94.4043 21.736C94.6727 23.1204 94.6784 23.1178 94.858 24.5171C94.8926 24.787 94.905 24.7852 95.0403 26.1316C95.0519 26.2468 95.1448 27.7168 95.1548 28.1097C95.1689 28.664 95.2072 29.2653 95.0691 30.977C95.061 31.0781 95.0428 31.0749 94.9366 32.237C94.9217 32.4004 94.9156 32.3988 94.835 32.864C94.7666 33.258 94.7366 34.0287 94.2512 35.0888C94.1825 35.2388 94.0092 35.4969 93.9862 35.5312C93.9498 35.5855 93.788 35.8265 93.4486 36.1458C93.4025 36.1891 93.4032 36.1875 93.3573 36.2321C93.2274 36.3584 93.2286 36.3616 93.2132 36.3637C93.1625 36.3705 93.1114 36.3406 93.0608 36.3474Z" fill="#FFDDA9"/>
<path fill-rule="evenodd" clip-rule="evenodd" d="M88.7344 18.773C88.6864 18.7349 88.175 18.3275 88.136 18.2948C87.9205 18.1133 87.9017 17.8517 88.0124 17.7078C88.178 17.4925 89.107 17.3902 89.8151 17.8663C90.4074 18.2646 90.5498 18.4811 90.8675 18.8808C90.9239 18.9517 91.29 19.5497 91.4198 19.8578C91.4385 19.902 91.6518 20.4085 91.6526 20.4106C91.8747 21.0116 91.8513 21.0174 91.9907 21.6443C92.0843 22.0655 92.0954 22.0619 92.2612 23.1714C92.3978 24.0856 92.3694 24.0876 92.3827 24.1667C92.427 24.4306 92.4086 24.4308 92.4425 24.6973C92.5008 25.1542 92.4714 25.1563 92.5315 25.5934C92.5498 25.7262 92.6443 27.189 92.5945 28.0207C92.476 30.0037 92.1 30.0533 91.4853 31.0567C91.2294 31.4743 90.9557 32.7512 90.9039 33.0473C90.7893 33.7032 89.8244 37.0209 89.4252 37.9673C89.2096 38.4783 89.2177 38.4796 89.1976 38.5233C89.039 38.868 88.6235 39.8227 88.2465 40.1829C88.1847 40.242 87.9667 40.4502 87.29 40.6593C87.1352 40.7071 86.1035 40.9274 86.0371 40.9385C86.0181 40.9418 85.8121 40.9764 85.8125 40.8504C85.8127 40.7897 85.8333 40.7971 86.0305 40.5712C86.0789 40.5159 86.7713 39.6113 86.8045 39.5615C87.1118 39.1001 87.1116 39.1001 87.1349 39.0658C87.3288 38.7807 87.7076 38.1642 87.7214 38.1434C87.8428 37.9611 87.9547 37.7445 88.1476 37.4157C88.2202 37.292 88.7875 36.2714 88.8267 36.1865C89.237 35.2959 89.6035 34.6153 89.5468 34.1174C89.4498 33.2667 88.7728 33.1468 89.3081 32.0781C89.5088 31.6773 89.5123 31.6172 89.7239 31.1642C89.909 30.7678 89.9102 30.7687 90.0144 30.4514C90.126 30.1119 90.132 30.1147 90.401 29.0892C90.4367 28.9534 90.6671 27.7331 90.6842 27.5696C90.83 26.1765 90.944 25.8893 90.8863 23.6253C90.8831 23.5024 90.8692 22.9573 90.7018 22.1004C90.5207 21.1742 90.2655 20.6695 90.2069 20.5536C90.031 20.2057 89.794 19.5832 88.7344 18.773Z" fill="#FFDDA9"/>
<path fill-rule="evenodd" clip-rule="evenodd" d="M80.6546 21.6514C80.0731 22.327 80.0898 22.3394 79.5051 23.0109C79.4478 23.0767 79.4675 23.091 78.8327 23.8707C78.7063 24.0259 78.4112 24.4493 78.3463 24.539C77.5178 25.6824 76.766 26.9911 76.7 27.1177C76.5581 27.3907 76.4364 27.5241 75.7897 28.8162C74.9412 30.5119 74.5247 31.8021 74.1089 32.7737C73.9918 33.0476 73.7575 33.7372 73.6721 33.7823C73.529 33.8576 73.5072 33.7146 73.2888 33.3179C73.1439 33.0545 73.1373 33.0598 72.9983 32.7921C72.9496 32.6983 72.5165 31.8639 72.4312 31.599C72.3567 31.3681 72.4938 31.1147 72.5625 30.884C72.7088 30.3931 72.7177 30.3973 72.8538 29.9038C72.856 29.8956 73.6399 27.3385 73.956 26.5962C74.1738 26.085 74.6703 24.6751 75.2714 24.4267C75.9945 24.128 76.3878 24.4107 77.0762 23.8138C77.564 23.3909 77.9488 22.5884 78.2485 22.1099C78.6814 21.4186 79.3339 20.592 79.5869 20.314C79.7356 20.1505 79.7156 20.1349 79.9694 19.8908C80.1951 19.6735 80.8548 18.9648 81.4426 18.4699C81.4869 18.4325 81.4894 18.4343 81.548 18.4389C81.6553 18.4474 81.6074 18.5086 81.7755 19.0358C82.0695 19.9572 82.0818 19.9538 82.0925 20.0373C82.1142 20.2057 82.04 20.2101 81.4809 20.7732C81.0555 21.2019 81.0645 21.2079 80.6546 21.6514Z" fill="#FFDDA9"/>
<path fill-rule="evenodd" clip-rule="evenodd" d="M86.0326 10.5955C86.1794 10.5681 86.1768 10.5646 86.3078 10.5484C87.9357 10.3473 88.8032 10.5257 89.3574 10.6045C90.1994 10.7241 91.4165 11.2107 91.9647 11.5943C91.9952 11.6156 92.5929 12.0022 92.9546 12.3087C94.9466 13.9958 95.8772 16.0182 96.0059 16.263C96.0792 16.4026 96.5511 17.3006 96.8179 18.0584C96.9784 18.5144 96.9945 18.5068 97.1708 18.9558C97.4576 19.6862 97.6788 20.1028 97.7299 20.1991C98.2198 21.1222 98.3126 21.4419 98.3459 21.5564C98.6423 22.5777 97.9435 22.6152 97.5016 22.2064C97.0444 21.7837 96.8697 21.2013 96.545 20.4796C96.2851 19.902 96.3033 19.8551 96.1565 19.5057C95.7245 18.4776 95.3885 17.3701 94.6009 16.0643C94.1056 15.2432 93.7695 14.9025 93.6449 14.7598C93.2337 14.2893 93.2187 14.3053 93.2114 14.298C91.6806 12.7737 89.6491 12.4292 89.6222 12.424C89.035 12.3096 88.697 12.2461 87.2007 12.2925C87.0524 12.2972 86.3924 12.3724 85.9404 12.4794C84.4399 12.8347 84.4579 12.893 84.3275 12.9231C84.1411 12.9663 84.124 12.7995 84.1219 12.7796C84.1005 12.5726 84.1151 11.9481 84.1168 11.8758C84.1319 11.2299 84.0657 11.0669 84.3335 10.983C85.1489 10.7273 85.8947 10.6161 86.0326 10.5955Z" fill="#FFDDA9"/>
<path fill-rule="evenodd" clip-rule="evenodd" d="M80.9133 14.2978C80.9176 14.6651 80.9472 14.701 80.672 14.9447C80.4096 15.1771 80.4205 15.1868 80.1541 15.4131C80.0253 15.5224 79.0963 16.4154 78.4298 17.0075C78.2722 17.1475 76.6132 18.7814 76.1361 19.3795C76.0855 19.4428 76.0669 19.4253 75.4462 20.1211C74.6421 21.0225 74.6365 21.0147 73.8507 21.9315C73.5239 22.3129 72.5989 23.4234 72.5842 23.4463C72.4301 23.6878 72.4171 23.677 72.2504 23.9112C72.0414 24.2049 72.0305 24.1958 71.8281 24.4954C71.806 24.5281 71.7634 24.5703 71.3991 25.047C70.9236 25.6693 70.9159 25.6682 70.8758 25.6761C70.7317 25.7043 70.7024 25.5278 70.6992 25.5086C70.4619 24.0836 70.4995 24.0182 71.0187 23.4131C71.3563 23.0198 71.5213 22.7639 71.56 22.7039C72.2671 21.6067 72.9068 20.4901 73.1792 20.1052C73.2519 20.0025 73.9457 18.9111 74.3913 18.3438C74.475 18.2373 74.9175 17.5793 75.1984 17.2687C75.7676 16.6391 76.4399 15.7693 78.1978 14.3432C78.3466 14.2227 78.3387 14.2165 78.4871 14.0975C79.0814 13.6208 79.0736 13.6138 79.6897 13.163C80.1836 12.8016 80.1911 12.8154 80.6806 12.4504C80.7497 12.399 80.7527 12.3959 80.837 12.4087C80.969 12.4288 80.8512 12.5079 80.9133 14.2978Z" fill="#FFDDA9"/>
<path fill-rule="evenodd" clip-rule="evenodd" d="M80.1978 16.3501C80.7782 15.8632 81.0097 15.5117 81.0591 15.9185C81.1004 16.2586 81.1176 16.2543 81.1495 16.4576C81.2975 17.3991 81.379 17.4207 81.256 17.5959C81.2154 17.6537 81.2135 17.6501 80.6377 18.2251C79.6264 19.2352 79.6159 19.2238 78.6882 20.3116C77.8891 21.2486 77.1243 22.671 76.9955 22.8304C76.7058 23.1889 76.7102 23.1938 76.5631 23.3082C75.9442 23.7892 75.3035 23.3927 74.7065 23.9527C74.3121 24.3226 74.1531 24.6005 74.1331 24.6283C74.0493 24.7446 73.6502 25.5018 73.5062 25.8778C73.196 26.6879 73.1849 26.6815 72.8856 27.494C72.5411 28.4295 72.4181 28.8917 72.379 28.9963C72.2793 29.2633 72.2982 29.2681 72.2082 29.5391C71.9963 30.1762 72.0517 30.1964 72.012 30.239C72.0055 30.246 71.8822 30.2598 71.8725 30.2543C71.8494 30.2413 71.8024 30.0365 71.7548 29.9114C71.5563 29.3896 71.5554 29.3194 71.4605 28.9935C70.8395 26.8618 70.945 26.7739 71.1245 26.5622C71.1642 26.5153 71.4574 26.1692 71.6052 25.9631C72.1856 25.1536 73.2385 23.739 73.6488 23.2574C73.9087 22.9523 75.1287 21.5402 75.5659 21.0427C75.6567 20.9395 76.0861 20.4841 76.1662 20.3919C76.7685 19.7001 76.7997 19.7191 76.939 19.554C77.3091 19.1151 77.3279 19.1349 77.7199 18.7139C77.9788 18.4359 77.9858 18.4443 78.2544 18.1761C78.9657 17.4658 78.9967 17.4766 79.308 17.165C79.4218 17.051 79.4264 17.0586 79.5458 16.9525C79.7721 16.7513 79.9965 16.5265 80.1978 16.3501Z" fill="#FFDDA9"/>
<path fill-rule="evenodd" clip-rule="evenodd" d="M88.3703 26.5848C88.4236 26.1818 88.4336 26.1845 88.495 25.7826C88.5496 25.4241 88.5241 25.4234 88.5619 25.061C88.6168 24.5339 88.6686 23.6504 88.6152 23.2692C88.5666 22.9227 88.5789 22.053 87.8806 21.1456C87.8409 21.0938 87.6839 20.8899 87.2733 20.6016C86.4375 20.0146 85.9833 20.2679 85.7684 20.0366C85.6866 19.9486 85.2829 18.8225 85.2739 18.7743C85.2714 18.7607 85.2551 18.6722 85.3257 18.6099C85.4048 18.5402 86.0031 18.3588 86.7597 18.4826C87.2901 18.5695 87.976 18.9789 88.0307 19.0206C88.9135 19.694 88.966 19.8865 89.2008 20.1996C89.6125 20.7485 89.9444 21.9128 89.9482 21.9285C90.1371 22.7184 90.1693 23.4876 90.175 23.6243C90.2164 24.6112 90.1935 24.6095 90.1692 25.5982C90.1625 25.8729 89.9516 27.7571 89.8915 28.0192C89.7751 28.5263 89.5668 29.775 88.9344 31.1715C88.5602 31.9976 88.4139 32.1613 88.2852 32.4178C87.9995 32.9873 86.8849 34.6989 86.7787 34.8529C86.2714 35.5889 86.2754 35.5904 86.2302 35.6535C86.1104 35.8203 85.8665 36.2699 85.8247 36.3163C85.7492 36.4 85.7579 36.4089 85.7483 36.4097C85.7366 36.4106 85.6269 36.3573 85.6261 36.3515C85.6182 36.2927 85.7984 35.9349 85.816 35.8999C86.2179 35.1017 86.285 34.8032 86.4594 34.3784C86.5609 34.1312 86.5995 33.9218 86.6861 33.6777C87.0233 32.7275 87.0384 32.4835 87.1961 31.9641C87.582 30.6925 87.822 29.3384 87.9283 28.9186C87.9958 28.6523 88.3013 27.0637 88.3703 26.5848Z" fill="#FFDDA9"/>
<path fill-rule="evenodd" clip-rule="evenodd" d="M81.6468 4.63402C81.8703 4.58029 81.866 4.57195 82.088 4.51473C82.7506 4.34396 82.7462 4.32863 82.8045 4.31661C82.9411 4.28845 83.0385 4.35966 82.9533 4.50468C82.7274 4.89017 82.714 5.07654 82.5946 5.30982C82.4567 5.57942 82.4738 5.58561 82.3539 5.86454C82.2652 6.07074 82.0904 6.07459 81.2106 6.52904C80.8585 6.71093 80.2978 7.06789 80.2741 7.07991C79.8568 7.28942 79.8839 7.33086 79.5536 7.52934C78.3674 8.24209 78.3581 8.30775 78.0267 8.51367C77.6664 8.73753 77.6749 8.74704 77.3265 8.99063C76.7852 9.36903 76.6317 9.46329 76.6281 9.46616C76.3756 9.66877 76.3644 9.6511 76.1083 9.84967C75.8836 10.0239 75.5581 10.2404 75.4395 10.3337C74.7396 10.884 74.7409 10.884 74.68 10.9315C74.4906 11.0793 73.7345 11.8116 73.6232 11.9299C72.9635 12.631 72.8684 12.7539 72.8089 12.8307C72.781 12.8668 71.9564 13.7944 71.7729 13.9352C71.6065 14.0628 71.2511 14.2501 71.1424 14.1228C71.0423 14.0054 71.2796 13.4301 71.3578 13.1402C71.5022 12.6045 71.5482 12.6233 71.93 11.9533C72.1215 11.6175 72.0467 11.118 72.7123 10.2951C73.0176 9.91765 73.4912 9.67119 73.5681 9.63119C74.6893 9.04768 74.9088 9.15485 76.5313 8.38183C76.8204 8.24407 76.8266 7.98146 76.8177 7.92639C76.7586 7.56701 76.2158 7.71177 76.1629 7.72594C76.0369 7.75957 74.9521 8.2299 74.9355 8.23851C74.487 8.46865 73.6057 8.76031 73.4721 8.7874C72.8533 8.91279 73.1902 8.13752 73.3714 7.91608C73.6204 7.61167 73.6256 7.61481 73.9432 7.42082C74.2298 7.24583 74.8137 7.03722 74.9337 6.98565C75.4079 6.78188 76.1572 6.52115 76.6265 6.33585C77.2079 6.10634 77.2119 6.1206 77.424 6.04051C77.4963 6.01324 78.1231 5.77656 78.3296 5.70427C78.6494 5.59243 78.6523 5.60238 78.68 5.59243C79.2707 5.38103 79.2673 5.37502 79.3191 5.35816C81.1701 4.75375 81.4576 4.68146 81.6468 4.63402Z" fill="#FFDDA9"/>
<path fill-rule="evenodd" clip-rule="evenodd" d="M81.0957 25.8621C81.2009 25.7081 81.5451 25.1798 81.729 24.9685C81.8781 24.797 81.8908 24.7088 82.5099 23.9617C82.7749 23.642 82.7787 23.6477 83.0474 23.3287C83.1472 23.2102 83.1427 23.1783 83.2507 23.1911C83.3728 23.2056 83.3259 23.2639 83.4461 23.7119C83.5895 24.2461 83.6051 24.264 83.4143 24.7838C83.2672 25.1846 83.2813 25.1875 83.1505 25.5934C82.9127 26.3315 82.3289 28.8813 81.8767 29.7076C81.6242 30.1691 81.6262 30.2252 81.2545 30.5932C80.7504 31.0921 80.5273 31.1156 80.0472 31.6253C79.4205 32.2905 79.3409 33.1043 78.8838 33.5149C78.2728 34.0637 78.2815 34.2511 78.2127 34.3757C78.1978 34.4028 78.0956 34.5878 78.0097 34.705C77.9993 34.7192 77.8541 34.8276 77.7958 34.8552C77.7555 34.8743 77.4544 35.017 77.2498 34.745C77.0339 34.4581 77.559 33.1651 77.5713 33.122C77.7232 32.5888 77.9526 32.1106 78.038 31.8708C78.0554 31.8218 78.2052 31.4017 78.2702 31.2638C78.4238 30.9376 78.3972 30.9277 78.5496 30.6022C78.8142 30.0372 78.7915 30.0282 79.0612 29.4649C79.931 27.6484 80.4486 26.8501 81.0957 25.8621Z" fill="#FFDDA9"/>
<path fill-rule="evenodd" clip-rule="evenodd" d="M80.5791 10.1042C80.7008 10.0335 80.6981 10.0315 80.8233 9.96944C80.9738 9.89482 80.9653 9.8828 81.0279 9.84818C81.0381 9.84262 81.1162 9.79939 81.1728 9.84145C81.2277 9.88217 81.1868 10.0613 81.1825 10.0799C81.051 10.6547 81.106 10.6634 80.9898 11.2424C80.951 11.4357 80.8245 11.4584 80.6429 11.5892C80.5119 11.6836 80.1096 11.9264 79.8392 12.1325C79.4528 12.427 79.4403 12.4066 79.0534 12.6996C78.7443 12.9336 78.7535 12.9423 78.443 13.1725C78.3451 13.2451 78.2208 13.3373 77.2745 14.1504C77.0193 14.3695 76.0599 15.284 75.937 15.4076C75.6457 15.7005 75.6521 15.7047 75.3739 16.0116C74.8069 16.637 74.8233 16.65 74.6627 16.826C74.1461 17.3925 74.0761 17.5411 73.9404 17.7149C73.6133 18.134 73.2587 18.6641 73.2264 18.7045C73.1979 18.7402 73.09 18.875 72.896 19.1704C72.5699 19.6667 72.5609 19.6598 72.5331 19.7033C72.5155 19.7308 71.8699 20.8107 71.8561 20.8394C71.724 21.1149 71.5195 21.4355 71.4045 21.6438C71.3813 21.6858 71.2526 21.9188 71.1094 22.1662C71.0063 22.344 70.6872 22.7453 70.5951 22.7739C70.4971 22.8043 70.4535 22.7295 70.4471 22.7187C70.4136 22.6609 70.396 22.1674 70.4057 21.5607C70.4121 21.1503 70.5526 21.0682 70.6013 20.8422C70.6739 20.505 70.4771 20.3413 70.4505 20.2951C70.3478 20.116 70.4041 19.7379 70.4238 19.6762C70.4957 19.4503 70.6043 19.5049 71.1146 19.1026C71.3666 18.9039 71.8515 18.2489 71.9387 18.1401C72.1535 17.8722 72.1475 17.8701 72.4778 17.4244C73.6421 15.8537 75.0009 14.417 75.1064 14.3087C76.1447 13.2448 76.1865 13.2667 76.7149 12.7792C77.0287 12.4898 77.9836 11.7298 78.5202 11.3632C79.2235 10.8827 80.3434 10.2332 80.5791 10.1042Z" fill="#FFDDA9"/>
<path fill-rule="evenodd" clip-rule="evenodd" d="M87.8387 6.65092C87.948 6.68993 88.5664 6.91066 89.1797 7.20376C89.2037 7.21524 89.9643 7.62933 90.0532 7.6879C90.9249 8.26101 90.8632 8.33769 91.1836 8.60514C91.5578 8.91762 91.8425 9.22166 92.1638 9.50903C93.3069 10.5319 93.9541 10.8919 94.6723 11.4832C94.6814 11.4907 95.3762 12.0927 95.4455 12.1549C95.571 12.2677 95.5827 12.2535 95.869 12.535C96.403 13.0601 96.4368 13.0282 97.2029 13.9902C97.6115 14.5034 97.6216 14.4983 97.9055 15.0897C98.383 16.0846 98.3079 16.7213 98.302 16.8967C98.2921 17.1899 98.2491 17.6849 97.6715 17.2914C97.6204 17.2567 97.4753 17.1578 97.1379 16.7339C96.7412 16.2355 95.6848 14.3435 95.525 14.1326C95.3248 13.8681 95.1399 13.5145 94.4028 12.7479C93.6939 12.0105 93.4642 11.803 92.684 11.2345C92.1814 10.8682 91.6527 10.6062 91.3438 10.4131C91.0163 10.2085 91.0017 10.2353 90.6805 10.0224C90.4378 9.86132 90.4313 9.87208 90.2175 9.67226C90.1542 9.61297 90.0641 9.5753 89.8904 9.27664C89.8006 9.12247 89.665 8.93134 89.6442 8.9021C89.2765 8.38424 88.9798 8.25356 88.6592 8.06845C88.5181 7.98701 87.9667 7.75059 87.2911 7.66978C86.3076 7.5522 86.3064 7.6 85.3174 7.62548C85.0038 7.63355 84.7048 7.72467 84.6559 7.58601C84.6236 7.49462 84.6498 7.49462 84.6688 7.38807C84.684 7.3026 84.8325 6.47181 84.8997 6.3275C84.9629 6.19189 85.1877 6.21539 85.499 6.21799C85.5924 6.2188 85.9014 6.2214 86.6577 6.35818C87.2065 6.45746 87.7456 6.62249 87.8387 6.65092Z" fill="#FFDDA9"/>
<path fill-rule="evenodd" clip-rule="evenodd" d="M81.1746 8.96223C80.437 9.27327 79.3659 9.95176 79.1349 10.0886C78.7997 10.2872 77.3444 11.3007 77.0741 11.5244C76.8522 11.708 76.8553 11.7087 76.6301 11.8894C75.5547 12.7526 74.3452 14.0388 74.322 14.0615C74.2022 14.1782 73.3662 15.1135 73.3416 15.1439C72.351 16.3662 71.0854 18.2753 70.7899 18.3351C70.6619 18.361 70.6255 18.2536 70.6205 18.2389C70.551 18.0341 70.5993 17.1998 70.652 16.9974C70.7272 16.7089 70.8235 16.1593 71.449 15.306C71.5021 15.2333 72.7516 13.8121 72.8738 13.6911C73.3222 13.2469 73.841 12.6901 74.4113 12.1844C75.3162 11.3818 75.4387 11.3039 75.538 11.2409C75.5851 11.2108 75.5763 11.2005 76.0923 10.8149C77.7562 9.57148 79.611 8.39835 79.9245 8.17942C80.0448 8.09548 80.0518 8.10992 80.1961 8.00373C80.5019 7.7787 80.9224 7.57268 81.5752 7.1585C81.5956 7.14559 81.9406 6.92657 81.8385 7.30613C81.8231 7.36326 81.8029 7.35671 81.619 8.01225C81.5146 8.38463 81.5151 8.38382 81.4517 8.64401C81.4178 8.78285 81.3757 8.85164 81.1746 8.96223Z" fill="#FFDDA9"/>
<path fill-rule="evenodd" clip-rule="evenodd" d="M86.6699 4.04618C87.4677 4.23667 87.9705 4.51874 88.3659 4.7061C89.4135 5.20262 90.9682 6.29368 91.5901 6.77351C91.8278 6.95693 91.8388 6.93935 92.5653 7.50636C92.9829 7.8322 93.2948 8.06377 93.3723 8.13167C93.541 8.27938 93.5531 8.26306 93.7187 8.41338C94.0193 8.68585 94.4559 8.99402 94.8181 9.28551C94.8906 9.34381 96.3918 10.3469 96.8357 10.9526C97.0297 11.2173 97.2611 11.471 97.4663 12.5871C97.5202 12.8804 97.6552 13.2147 97.5197 13.2299C97.3764 13.2461 97.4024 13.183 97.3121 13.0691C96.7849 12.404 95.3673 11.0924 95.1527 10.9319C94.5999 10.5188 94.4957 10.4132 93.8446 9.98571C93.7356 9.91423 93.4283 9.69359 93.1188 9.45879C92.5597 9.03456 92.0005 8.24172 90.7209 7.27425C90.6384 7.21191 90.366 7.00599 89.6122 6.60903C88.435 5.98919 86.7494 5.4489 85.5877 5.43778C85.3251 5.43527 85.3252 5.4359 85.3157 5.43419C85.099 5.395 85.2032 5.0975 85.2603 4.89095C85.3308 4.63525 85.3568 4.64494 85.4762 4.24609C85.5205 4.09802 85.5109 4.09523 85.5453 4.04824C85.5812 3.99909 85.5702 3.9433 85.9459 3.93568C86.154 3.93137 86.6127 4.03344 86.6699 4.04618Z" fill="#FFDDA9"/>
<path fill-rule="evenodd" clip-rule="evenodd" d="M85.0472 13.4822C85.4725 13.3634 85.4713 13.3624 85.5084 13.3524C85.6929 13.3021 85.974 13.2606 86.1261 13.2223C86.4125 13.1503 87.0541 13.035 87.2914 13.0295C88.697 12.9967 88.9633 12.9919 90.1646 13.3023C90.498 13.3884 91.2524 13.75 91.5211 13.9159C91.5619 13.9411 91.9752 14.1963 92.0278 14.2346C93.1072 15.0202 93.4642 15.5571 93.7042 15.8794C94.0172 16.3001 94.3759 17.1872 93.8399 17.2628C93.4806 17.3135 93.3338 17.0715 92.3784 16.1167C92.0165 15.755 91.0606 15.1608 90.0749 14.9157C89.8418 14.8578 89.3603 14.7806 89.35 14.7795C88.5286 14.6951 88.1188 14.6972 87.7394 14.7334C86.7991 14.8229 86.2024 14.9163 84.8644 15.2643C84.6282 15.3257 84.4499 15.4485 84.372 15.3448C84.3496 15.3149 84.3272 15.1256 84.3249 15.1063C84.2864 14.7807 84.2578 14.6693 84.2427 14.4773C84.2043 13.9908 84.1325 13.802 84.3431 13.7039C84.4042 13.6754 84.9906 13.4993 85.0472 13.4822Z" fill="#FFDDA9"/>
<path fill-rule="evenodd" clip-rule="evenodd" d="M96.3165 9.43678C96.1849 9.44494 96.1852 9.44952 96.1744 9.44557C96.109 9.42154 95.5728 8.98798 95.5217 8.94664C95.0885 8.5964 95.0215 8.5364 94.9796 8.49882C94.6095 8.16733 93.9292 7.6388 93.6553 7.39798C93.5134 7.27314 93.2036 7.06721 93.0958 6.97797C92.5226 6.50343 89.728 4.62993 89.1844 4.32732C88.1262 3.73815 87.7468 3.54622 86.9195 3.30917C86.2392 3.11428 86.1146 3.20791 86.0071 3.12836C85.8712 3.02791 85.9851 2.89302 86.0385 2.72943C86.1265 2.46 86.133 2.4644 86.2333 2.19784C86.3424 1.90815 86.4563 1.97819 87.0282 2.07138C87.185 2.09694 87.8674 2.20816 88.8914 2.75786C89.2984 2.97634 89.2883 2.99078 89.6913 3.21446C89.7165 3.22845 90.3961 3.6986 90.6266 3.87233C91.2456 4.33844 91.2466 4.33647 91.299 4.37862C91.6503 4.66051 91.6593 4.64661 92.0208 4.91406C93.253 5.82547 94.9091 6.58971 95.1755 6.86326C95.2486 6.93833 95.6988 7.72409 95.9432 8.36294C96.0172 8.55649 96.3248 9.26934 96.3314 9.36387C96.3331 9.38862 96.3148 9.41203 96.3165 9.43678Z" fill="#FFDDA9"/>
<path fill-rule="evenodd" clip-rule="evenodd" d="M82.7164 2.08999C83.3813 1.95213 83.3802 1.94819 83.4386 1.93985C84.2749 1.82092 84.322 1.72298 84.3444 1.81931C84.3772 1.9594 84.3161 1.94828 84.1251 2.26075C83.8327 2.73888 83.801 2.75171 83.6255 3.09208C83.3864 3.55568 83.2289 3.46186 82.9008 3.55011C81.2019 4.00708 80.9113 4.09408 80.7394 4.14547C79.4139 4.54198 79.4253 4.57651 79.3092 4.60808C78.9384 4.70907 78.9484 4.734 78.5872 4.86656C77.2634 5.35241 75.3073 6.16974 74.825 6.14561C74.5637 6.13252 74.6436 5.8639 74.6703 5.78578C74.7366 5.59205 75.0878 5.11868 75.159 5.03679C75.6511 4.47095 76.2398 4.32233 76.9867 4.00143C78.1298 3.51029 78.2598 3.51783 78.6726 3.33423C78.9535 3.2093 79.3024 3.104 79.8454 2.89889C80.1355 2.78929 80.2248 2.80229 80.3878 2.73099C80.7008 2.59412 80.8425 2.5891 81.3644 2.42739C81.4708 2.39439 81.9133 2.25734 82.7164 2.08999Z" fill="#FFDDA9"/>
<path fill-rule="evenodd" clip-rule="evenodd" d="M84.3373 31.7016L84.4228 31.6934C84.4385 31.7117 84.4784 31.6874 84.4941 31.7057C84.525 31.7419 84.4728 32.0092 84.4315 32.5944C84.4191 32.7701 84.3993 32.7924 84.3173 33.5781C84.2584 34.1426 84.1183 34.2296 83.8044 34.6638C83.2115 35.4841 82.4832 36.232 82.3588 36.3598C81.9944 36.7339 81.9984 36.7352 81.7667 36.9366C81.6268 37.0583 81.0909 37.6248 80.089 38.1991C79.9827 38.26 79.2698 38.6101 78.9517 38.6934C78.0928 38.9183 77.927 38.7292 77.6758 38.5404C77.6471 38.5187 77.6516 38.5164 77.3211 38.2629C77.2194 38.1849 76.8773 37.898 76.8737 37.8948C76.861 37.8835 76.84 37.8789 76.8342 37.863C76.8272 37.8436 76.8392 37.8219 76.8399 37.8012C76.8409 37.7655 76.8241 37.7407 76.8958 37.722C77.0822 37.6736 77.9236 37.7906 79.2382 37.1172C79.7635 36.848 79.7503 36.8274 80.233 36.4867C80.5497 36.2631 80.5505 36.2651 80.8409 36.0087C81.3542 35.5556 81.747 35.1632 82.5725 34.1479C82.6497 34.053 82.7602 33.917 83.4948 32.9286C84.283 31.868 84.2548 31.8503 84.3373 31.7016Z" fill="#FFDDA9"/>
<path fill-rule="evenodd" clip-rule="evenodd" d="M95.8178 30.6212C95.8212 30.5136 95.8346 30.0888 95.8368 29.2757C95.8412 27.596 95.7994 27.5974 95.7858 26.945C95.7665 26.01 95.6739 25.8169 95.6629 25.5068C95.6454 25.0161 95.6312 25.0176 95.4541 23.715C95.4034 23.3424 95.1221 22.1851 95.235 21.5558C95.3191 21.0867 95.767 21.2576 95.8675 21.3364C95.8988 21.3609 95.9952 21.4365 96.1336 21.756C96.2747 22.0814 96.4984 23.1183 96.5312 23.3561C96.6114 23.9363 96.6299 23.9316 96.6353 23.9821C96.6968 24.5588 96.8599 25.764 96.879 25.9582C96.9963 27.1511 97.0988 27.245 97.1441 27.8422C97.16 28.051 96.9649 28.5627 96.9534 29.0956C96.9227 30.5174 96.8189 30.6487 96.4095 31.3188C96.3919 31.3478 96.0365 31.8485 95.9926 31.878C95.8827 31.9518 95.8196 31.8896 95.8091 31.8793C95.7221 31.7937 95.8084 31.0682 95.8178 30.6212Z" fill="#FFDDA9"/>
<path fill-rule="evenodd" clip-rule="evenodd" d="M91.5737 33.3064C91.6256 33.0712 91.6242 33.0724 91.6298 33.0524C91.8993 32.0757 91.9043 31.814 92.1647 31.4514C92.4167 31.1005 93.0871 30.9585 93.1988 31.6999C93.2759 32.2102 92.874 33.9495 92.6646 34.7449C92.305 36.1114 92.2669 36.2341 92.2272 36.3621C92.1982 36.4553 91.8782 37.4867 91.8634 37.5263C91.6874 37.9935 91.5906 38.1122 91.3904 38.304C91.2982 38.3921 89.734 39.6409 89.6239 39.5953C89.5123 39.549 89.5347 39.5148 89.5841 39.4058C90.0507 38.3765 90.1699 37.9535 90.2699 37.714C90.3581 37.5029 90.389 37.3335 90.4476 37.1735C90.7997 36.2129 91.383 34.0753 91.3958 34.0234C91.4101 33.9661 91.5703 33.3195 91.5737 33.3064Z" fill="#FFDDA9"/>
<path fill-rule="evenodd" clip-rule="evenodd" d="M87.8481 34.4878C88.1298 34.0307 88.3964 33.6134 88.6654 33.8111C89.2212 34.2199 88.3691 35.4524 87.9933 36.2633C87.8881 36.4902 87.6866 36.8015 87.6388 36.8919C87.3531 37.4316 86.5544 38.7015 86.4535 38.8477C86.0584 39.4202 85.2894 40.6606 84.155 40.9429C83.6189 41.0764 82.9624 40.9418 82.789 40.8895C82.4979 40.8018 82.696 40.6708 82.7121 40.6601C82.7746 40.6188 83.2365 40.2796 83.2776 40.2469C83.308 40.2229 83.7768 39.8392 83.9574 39.6624C84.0405 39.581 84.6368 38.9435 84.6504 38.9272C86.3653 36.8499 87.0526 35.6404 87.1897 35.455C87.2502 35.373 87.2472 35.3732 87.8481 34.4878Z" fill="#FFDDA9"/>
<path fill-rule="evenodd" clip-rule="evenodd" d="M87.3874 1.36164C87.207 1.31778 87.2084 1.31751 87.0293 1.26576C86.9051 1.22988 86.7134 1.19849 86.6849 1.17661C86.6046 1.11526 86.6773 0.960729 86.6852 0.943957C87.0315 0.208601 87.0224 0.205281 87.056 0.143217C87.0853 0.0889553 87.186 -0.097058 87.8229 0.0646505C88.7565 0.301697 89.1866 0.539731 89.372 0.631572C89.5883 0.73866 89.5822 0.74736 89.7957 0.859112C89.8786 0.902521 90.5195 1.23805 90.8008 1.45733C91.0067 1.61779 91.9717 2.26067 92.9354 3.36151C93.2023 3.66645 93.3319 3.84117 93.4592 3.99857C93.9084 4.55365 94.4157 5.35475 94.4098 5.42542C94.4077 5.45152 94.3241 5.51323 94.2878 5.50641C94.2632 5.50166 94.1271 5.41627 94.1136 5.40775C94.0791 5.38614 94.0454 5.36345 94.0108 5.34201C93.3913 4.95832 93.1308 4.84021 92.7442 4.54746C92.742 4.54576 92.249 4.20431 92.2134 4.17732C92.1768 4.14951 91.7674 3.83847 91.7563 3.82968C91.4519 3.59075 91.4325 3.61919 91.1339 3.37452C90.8595 3.14976 90.6506 3.02491 90.5105 2.92132C90.3801 2.82481 90.3741 2.83719 90.2407 2.74248C89.7634 2.40355 88.8944 1.8986 88.4543 1.75241C88.079 1.62774 88.1003 1.56927 87.3874 1.36164Z" fill="#FFDDA9"/>
<path fill-rule="evenodd" clip-rule="evenodd" d="M85.4995 0.0078125C85.6499 0.0191133 85.673 -0.0191832 85.7237 0.0627922C85.7886 0.167907 85.7193 0.164858 85.6323 0.251228C85.5996 0.283695 85.6076 0.289704 85.2583 0.689087C85.1466 0.816893 85.1 0.968378 84.8693 1.01403C84.8126 1.02524 84.8102 1.0038 84.1508 1.09708C83.9194 1.12982 83.919 1.11708 83.3479 1.21556C83.1405 1.25134 82.603 1.36659 82.5383 1.38041C82.3889 1.41251 81.0686 1.72867 80.3967 1.95594C79.765 2.16967 79.7668 2.16823 79.1379 2.38644C78.8146 2.49855 78.8127 2.49003 78.496 2.61999C78.2302 2.72887 77.8034 2.86493 77.5197 3.01032C77.3531 3.0957 77.3541 3.09902 77.3362 3.09956C77.3136 3.10018 77.1762 3.04763 77.2813 2.92933C77.3113 2.8956 77.3303 2.91731 77.7024 2.55488C77.7098 2.5477 78.3343 1.99325 78.7645 1.72867C79.1705 1.47897 79.2983 1.36408 79.7633 1.12156C80.4593 0.758416 80.4566 0.755456 81.1796 0.450695C81.4948 0.317866 81.5051 0.349706 81.8252 0.227909C82.3779 0.0175894 83.0577 0.0153465 83.1663 0.0149877C83.353 0.0143599 85.3536 0.0078125 85.4995 0.0078125Z" fill="#FFDDA9"/>
<path fill-rule="evenodd" clip-rule="evenodd" d="M83.749 36.4635C83.4393 37.6411 83.2737 38.3875 82.6396 39.3294C82.0894 40.1467 81.4073 40.4002 81.3755 40.408C81.0888 40.4779 80.8016 40.3654 80.0451 39.9985C80.001 39.9771 79.6234 39.7566 79.4841 39.6904C79.1956 39.5533 79.0753 39.4806 79.1853 39.3847C79.2782 39.3037 79.2966 39.3415 79.6531 39.1937C79.9867 39.0555 79.994 39.075 80.3096 38.896C80.8521 38.5884 80.8656 38.6094 81.3568 38.2244C81.4367 38.1618 82.0215 37.7033 82.327 37.4083C82.4252 37.3134 83.4572 36.2578 83.6932 35.8995C83.732 35.8405 83.7355 35.8456 83.7764 35.786C83.8198 35.7231 83.8171 35.7081 83.8939 35.7101C83.9992 35.713 83.9306 35.8961 83.925 35.9113C83.8231 36.183 83.8265 36.1823 83.749 36.4635Z" fill="#FFDDA9"/>
<path fill-rule="evenodd" clip-rule="evenodd" d="M84.6027 10.0895C84.3648 10.152 84.3575 10.1493 84.3371 10.1419C84.3237 10.1369 84.2354 10.1048 84.2378 9.99345C84.2401 9.88528 84.4004 8.7544 84.4477 8.66157C84.4839 8.59063 84.5141 8.53161 85.4128 8.41538C86.8724 8.22667 88.7048 8.54363 88.7251 9.18607C88.7371 9.56393 88.4194 9.64214 88.374 9.65326C87.6906 9.82151 87.5003 9.62151 86.2136 9.80035C85.4028 9.913 85.4082 9.93443 84.6027 10.0895Z" fill="#FFDDA9"/>
<path fill-rule="evenodd" clip-rule="evenodd" d="M87.7198 26.2206C87.7125 26.246 87.7031 26.2394 87.6952 26.2664C87.6827 26.309 87.6934 26.3097 87.6814 26.3528C87.6756 26.3735 87.6605 26.3908 87.6548 26.4116C87.6245 26.411 87.6133 26.4681 87.5829 26.4674C87.5131 26.4661 87.5259 25.8531 87.4307 25.2462C87.2156 23.8763 86.7534 22.1983 86.2578 21.1858C86.1872 21.0415 86.2266 21.0247 86.2802 20.981C86.3264 20.9434 86.3308 20.9532 86.3891 20.9698C87.0343 21.1538 87.2805 21.5367 87.4223 21.7143C87.5034 21.8158 87.8243 22.2179 87.8902 23.269C87.9352 23.9867 87.8251 24.7181 87.7198 26.2206Z" fill="#FFDDA9"/>
<path fill-rule="evenodd" clip-rule="evenodd" d="M98.1726 25.2437C98.1565 25.3457 98.0638 25.936 97.8939 26.5046C97.8652 26.6007 97.8834 26.6342 97.7838 26.6405C97.678 26.647 97.6907 26.6085 97.6743 26.5034C97.5947 25.9953 97.6366 25.9907 97.4783 25.0647C97.2475 23.7146 97.2502 23.6586 97.256 23.5351C97.2936 22.7427 98.1633 23.2004 98.264 23.8872C98.3331 24.3594 98.2763 24.676 98.1726 25.2437Z" fill="#FFDDA9"/>
<path fill-rule="evenodd" clip-rule="evenodd" d="M94.233 18.4221C94.2355 18.3952 94.1966 18.0897 94.475 18.0156C94.7063 17.954 94.8563 18.1547 94.8771 18.1826C94.9582 18.291 95.3919 19.3373 95.4217 19.421C95.609 19.9475 95.63 19.9688 95.5707 20.1371C95.472 20.417 94.9805 20.623 94.7439 20.0348C94.2076 18.7015 94.2426 18.4987 94.233 18.4221Z" fill="#FFDDA9"/>
<path fill-rule="evenodd" clip-rule="evenodd" d="M97.9529 19.0521C97.9513 19.0232 97.9375 18.7773 97.9442 18.6899C97.9465 18.6585 97.9657 18.4045 98.2342 18.4239C98.6553 18.4543 98.7702 19.6752 98.326 19.7068C97.9831 19.7313 97.9691 19.1674 97.9529 19.0521Z" fill="#FFDDA9"/>
<path fill-rule="evenodd" clip-rule="evenodd" d="M87.505 26.832C87.5038 26.8455 87.4902 27 87.4902 27C87.4811 27.0161 87.449 27.007 87.4399 27.0231C87.4457 27.0023 87.4607 26.985 87.4666 26.9642C87.4785 26.9211 87.4678 26.9205 87.4803 26.8779C87.4882 26.8508 87.4976 26.8574 87.505 26.832Z" fill="#FFDDA9"/>
<path d="M13.832 76.0379H14.5041L14.4688 80.0354H1.7688V57.2532H4.95264V79.4694H6.75681C9.44539 79.4694 12.6292 79.2571 13.832 76.0379ZM15.967 57.3594C16.9222 58.1023 17.4528 59.1282 17.4528 60.2956C17.4528 62.2766 15.7194 64.0101 13.7029 64.9652L13.5614 64.753C14.7642 64.0101 15.401 62.9842 15.401 61.8875C15.401 61.0739 14.9411 60.2248 14.1982 59.5173C13.6676 58.9867 13.5614 58.173 14.0213 57.607H14.0567C14.5166 57.0056 15.3656 56.8995 15.967 57.3594ZM25.1357 79.4694C27.8243 79.4694 31.0081 79.2571 32.2109 76.0379H32.8831L32.8477 80.0354H20.1477V57.2532H32.8477L32.8831 61.2507H32.2109C31.0081 58.0315 27.8243 57.8193 25.1357 57.8193H23.3316V67.9014H29.2747V68.4674H23.3316V79.4694H25.1357ZM56.3608 57.2532L58.5188 80.0354H55.2996L53.3539 59.2343L45.7127 78.6203H45.5712L37.0809 60.0126L35.206 80H34.6046L36.5857 58.8452L35.9135 57.3594V57.2532H39.345L46.8801 74.0215L53.4954 57.2532H56.3608ZM67.2354 57.2532C73.0724 57.2532 76.044 59.5173 76.044 63.5148C76.044 67.7953 72.6833 70.5192 67.2354 70.5192C66.2448 70.5192 65.1835 70.4485 64.5114 70.3424V80.0354H61.3276V57.2532H67.2354ZM66.7047 70.024C70.6668 70.024 72.6833 67.7245 72.6833 63.9039C72.6833 60.2956 70.8437 57.7839 66.7401 57.7839H64.5114V69.8117C65.0774 69.9532 65.7849 70.024 66.7047 70.024ZM87.6639 68.9627L95.1636 80.0354H91.4137L85.2229 70.4131C84.7984 69.9178 84.48 69.741 83.5956 69.741H81.5085V80.0354H78.3246V57.2532H83.914C89.9279 57.2532 93.1471 59.1282 93.1471 63.0195C93.1471 66.2387 90.6355 67.9368 87.6639 68.9627ZM84.3739 69.2457C87.77 69.2457 89.9279 66.4864 89.9279 63.2318C89.9279 59.9418 87.9115 57.7485 83.7725 57.7485H81.5085V69.0688C82.216 69.175 83.7371 69.2457 84.3739 69.2457ZM102.106 79.4694C104.795 79.4694 107.979 79.2571 109.181 76.0379H109.853L109.818 80.0354H97.1181V57.2532H109.818L109.853 61.2507H109.181C107.979 58.0315 104.795 57.8193 102.106 57.8193H100.302V67.9014H106.245V68.4674H100.302V79.4694H102.106ZM115.537 80.0354H112.353V57.2532H115.537V80.0354ZM134.336 57.2532H134.973V80.4245H134.69L120.221 60.3663V80H119.584V59.4819L118.063 57.3594V57.2532H121.848L134.336 74.9059V67.2293C134.336 57.607 134.336 57.2532 134.336 57.2532ZM153.256 57.2532L153.61 60.3663H153.539C151.027 59.1636 149.329 57.8193 147.455 57.8193H146.747V80.0354H143.528V57.8193H142.785C140.91 57.8193 139.283 59.1282 136.771 60.331H136.736L137.019 57.2532H153.256ZM160.352 79.4694C163.041 79.4694 166.225 79.2571 167.427 76.0379H168.099L168.064 80.0354H155.364V57.2532H168.064L168.099 61.2507H167.427C166.225 58.0315 163.041 57.8193 160.352 57.8193H158.548V67.9014H164.491V68.4674H158.548V79.4694H160.352Z" fill="#FFDDA9"/>
<rect y="91.5" width="36.7041" height="1" fill="#FFDDA9"/>
<path d="M48.4788 96.1922C47.2249 96.1922 46.1961 95.7865 45.3925 94.9751C44.5928 94.1638 44.193 93.1117 44.193 91.819C44.193 90.5573 44.6064 89.5169 45.4333 88.6978C46.2602 87.8787 47.2831 87.4691 48.5021 87.4691C48.9407 87.4691 49.3425 87.5215 49.7075 87.6263C50.0724 87.7312 50.4082 87.8826 50.7149 88.0805C51.0215 88.2785 51.2506 88.4629 51.402 88.6337C51.5573 88.8007 51.6349 88.8841 51.6349 88.8841L50.9944 89.5072C50.9944 89.5072 50.9245 89.4315 50.7847 89.2801C50.645 89.1287 50.4567 88.9773 50.2199 88.8259C49.987 88.6745 49.7307 88.558 49.4512 88.4765C49.1717 88.3911 48.8495 88.3484 48.4846 88.3484C47.5645 88.3484 46.7823 88.6648 46.1379 89.2976C45.4935 89.9304 45.1712 90.7728 45.1712 91.8248C45.1712 92.873 45.4896 93.7154 46.1262 94.3521C46.7668 94.9887 47.5471 95.307 48.4671 95.307C48.8398 95.307 49.1814 95.2585 49.492 95.1615C49.8064 95.0605 50.0937 94.9227 50.3538 94.748C50.6178 94.5695 50.8197 94.4025 50.9594 94.2472C51.1031 94.092 51.1749 94.0143 51.1749 94.0143L51.8387 94.6141C51.8387 94.6141 51.7553 94.7111 51.5883 94.9053C51.4214 95.0994 51.1749 95.3032 50.8488 95.5167C50.5227 95.7263 50.1617 95.8913 49.7657 96.0116C49.3736 96.132 48.9446 96.1922 48.4788 96.1922ZM57.2076 96.1863C55.9964 96.1863 54.9793 95.7845 54.1563 94.981C53.3372 94.1735 52.9276 93.1195 52.9276 91.819C52.9276 90.5534 53.3333 89.513 54.1447 88.6978C54.956 87.8787 55.977 87.4691 57.2076 87.4691C58.415 87.4691 59.4301 87.8767 60.2531 88.692C61.0761 89.5033 61.4876 90.5457 61.4876 91.819C61.4876 93.069 61.0781 94.1094 60.259 94.9402C59.4437 95.771 58.4266 96.1863 57.2076 96.1863ZM57.2076 95.307C58.151 95.307 58.9371 94.9907 59.566 94.3579C60.1949 93.7212 60.5094 92.8749 60.5094 91.819C60.5094 90.7786 60.191 89.942 59.5544 89.3092C58.9177 88.6726 58.1355 88.3542 57.2076 88.3542C56.2721 88.3542 55.4879 88.6667 54.8551 89.2918C54.2223 89.9129 53.9059 90.7553 53.9059 91.819C53.9059 92.8788 54.2243 93.7251 54.8609 94.3579C55.4976 94.9907 56.2798 95.307 57.2076 95.307ZM63.3279 96V87.6613H68.0097V88.5347H64.2655V96H63.3279ZM63.8345 92.2091V91.3357H67.6196V92.2091H63.8345ZM69.7425 96V87.6613H74.4243V88.5347H70.68V96H69.7425ZM70.2491 92.2091V91.3357H74.0341V92.2091H70.2491ZM76.157 96V87.6613H81.0776V88.5347H77.0945V95.1265H81.1998V96H76.157ZM76.7219 92.1393V91.2716H80.437V92.1393H76.7219ZM83.0037 96V87.6613H87.9243V88.5347H83.9413V95.1265H88.0466V96H83.0037ZM83.5686 92.1393V91.2716H87.2837V92.1393H83.5686ZM95.2646 96.1922C94.7444 96.1922 94.2863 96.1165 93.8903 95.9651C93.4944 95.8098 93.1683 95.5924 92.9121 95.3129C92.6597 95.0334 92.4753 94.75 92.3589 94.4627C92.2424 94.1754 92.1842 94.0318 92.1842 94.0318L93.0285 93.6766C93.0285 93.6766 93.0809 93.7969 93.1857 94.0376C93.2906 94.2783 93.4342 94.5015 93.6167 94.7073C93.803 94.913 94.0359 95.0702 94.3154 95.1789C94.5988 95.2876 94.9269 95.342 95.2995 95.342C95.8741 95.342 96.3244 95.2003 96.6505 94.9169C96.9766 94.6335 97.1396 94.2686 97.1396 93.8222C97.1396 93.3718 96.9999 93.0205 96.7204 92.7682C96.4409 92.5119 95.8799 92.2616 95.0375 92.017C94.1058 91.7452 93.4614 91.423 93.1042 91.0503C92.751 90.6777 92.5743 90.2099 92.5743 89.647C92.5743 89.0064 92.8131 88.4843 93.2906 88.0805C93.7681 87.6729 94.3911 87.4691 95.1598 87.4691C95.6101 87.4691 96.0003 87.5312 96.3302 87.6555C96.6602 87.7758 96.9417 87.9466 97.1746 88.1679C97.4075 88.3892 97.5803 88.6124 97.6928 88.8376C97.8093 89.0627 97.8675 89.1753 97.8675 89.1753L97.0348 89.5363C97.0348 89.5363 96.9902 89.4567 96.9009 89.2976C96.8116 89.1345 96.6854 88.9734 96.5224 88.8143C96.3594 88.6551 96.1672 88.5328 95.9459 88.4474C95.7246 88.362 95.4587 88.3193 95.1481 88.3193C94.6396 88.3193 94.2378 88.4377 93.9428 88.6745C93.6477 88.9113 93.5002 89.218 93.5002 89.5946C93.5002 89.9595 93.6302 90.2584 93.8903 90.4913C94.1504 90.7204 94.6998 90.9611 95.5383 91.2134C96.4389 91.4774 97.0853 91.8073 97.4774 92.2033C97.8695 92.5954 98.0655 93.1137 98.0655 93.7581C98.0655 94.4685 97.8113 95.0528 97.3027 95.5109C96.798 95.9651 96.1187 96.1922 95.2646 96.1922ZM105.281 96V87.6613H106.224V96H105.281ZM99.8362 96V87.6613H100.774V96H99.8362ZM100.395 92.1684V91.2949H105.729V92.1684H100.395ZM112.345 96.1863C111.134 96.1863 110.117 95.7845 109.294 94.981C108.475 94.1735 108.065 93.1195 108.065 91.819C108.065 90.5534 108.471 89.513 109.282 88.6978C110.094 87.8787 111.115 87.4691 112.345 87.4691C113.553 87.4691 114.568 87.8767 115.391 88.692C116.214 89.5033 116.625 90.5457 116.625 91.819C116.625 93.069 116.216 94.1094 115.397 94.9402C114.581 95.771 113.564 96.1863 112.345 96.1863ZM112.345 95.307C113.289 95.307 114.075 94.9907 114.704 94.3579C115.333 93.7212 115.647 92.8749 115.647 91.819C115.647 90.7786 115.329 89.942 114.692 89.3092C114.055 88.6726 113.273 88.3542 112.345 88.3542C111.41 88.3542 110.626 88.6667 109.993 89.2918C109.36 89.9129 109.044 90.7553 109.044 91.819C109.044 92.8788 109.362 93.7251 109.999 94.3579C110.635 94.9907 111.418 95.307 112.345 95.307ZM118.466 96V87.6613H121.383C122.191 87.6613 122.825 87.9039 123.287 88.3892C123.753 88.8706 123.986 89.4994 123.986 90.2759C123.986 91.0833 123.749 91.7278 123.276 92.2091C122.806 92.6905 122.138 92.9312 121.272 92.9312H119.001V92.0636H121.214C121.793 92.0636 122.239 91.9122 122.554 91.6094C122.868 91.3066 123.025 90.8737 123.025 90.3108C123.025 89.7751 122.868 89.3461 122.554 89.0239C122.239 88.6978 121.8 88.5347 121.237 88.5347H119.403V96H118.466Z" fill="#FFDDA9"/>
<rect x="132.296" y="91.5" width="36.7041" height="1" fill="#FFDDA9"/>
</svg>
